<svg width="18" height="18" viewBox="0 0 18 18" fill="none" xmlns="http://www.w3.org/2000/svg">
<path d="M8.99973 7.63889C10.181 7.63889 11.1386 6.68128 11.1386 5.5C11.1386 4.31873 10.181 3.36111 8.99973 3.36111C7.81845 3.36111 6.86084 4.31873 6.86084 5.5C6.86084 6.68128 7.81845 7.63889 8.99973 7.63889Z" stroke="#A2A2A2" stroke-width="1.5" stroke-linecap="round" stroke-linejoin="round"/>
<path d="M12.7036 14.068C13.3725 13.8572 13.724 13.1183 13.4401 12.4775C12.6857 10.7733 10.9831 9.58334 8.99979 9.58334C7.01645 9.58334 5.3139 10.7733 4.55945 12.4775C4.27556 13.1191 4.62712 13.8572 5.29601 14.068C6.24879 14.3682 7.50956 14.6389 8.99979 14.6389C10.49 14.6389 11.7508 14.3682 12.7036 14.068Z" stroke="#A2A2A2" stroke-width="1.5" stroke-linecap="round" stroke-linejoin="round"/>
</svg>
