<svg width="18" height="18" viewBox="0 0 18 18" fill="none" xmlns="http://www.w3.org/2000/svg">
<g clip-path="url(#clip0_10_308)">
<path d="M8.41455 10.9444L9.666 12.1111L12.3081 8.61111" stroke="#A2A2A2" stroke-width="1.5" stroke-linecap="round" stroke-linejoin="round"/>
<path d="M13.0835 6.08333H7.63905C6.77994 6.08333 6.0835 6.77977 6.0835 7.63888V13.0833C6.0835 13.9424 6.77994 14.6389 7.63905 14.6389H13.0835C13.9426 14.6389 14.6391 13.9424 14.6391 13.0833V7.63888C14.6391 6.77977 13.9426 6.08333 13.0835 6.08333Z" stroke="#A2A2A2" stroke-width="1.5" stroke-linecap="round" stroke-linejoin="round"/>
<path d="M4.1787 11.3318L3.37837 5.94645C3.25237 5.09633 3.83881 4.30534 4.68814 4.17934L10.0735 3.379C10.7991 3.27089 11.4813 3.68233 11.7441 4.33411" stroke="#A2A2A2" stroke-width="1.5" stroke-linecap="round" stroke-linejoin="round"/>
</g>
<defs>
<clipPath id="clip0_10_308">
<rect width="14" height="14" fill="white" transform="translate(2 2)"/>
</clipPath>
</defs>
</svg>
