<svg width="24" height="24" viewBox="0 0 24 24" fill="none" xmlns="http://www.w3.org/2000/svg">
<g clip-path="url(#clip0_10_292)">
<path d="M10.3375 1.10458C11.2527 0.179576 12.747 0.179578 13.6623 1.10458L14.6449 2.09763C15.1372 2.59518 15.8265 2.84606 16.5235 2.78137L17.9145 2.65226C19.2102 2.532 20.3549 3.49251 20.4615 4.78943L20.5759 6.18176C20.6332 6.87937 21 7.51462 21.5755 7.91306L22.7241 8.7083C23.794 9.44905 24.0534 10.9206 23.3014 11.9826L22.4941 13.1228C22.0896 13.694 21.9622 14.4164 22.1469 15.0915L22.5156 16.439C22.8591 17.6942 22.1119 18.9883 20.8532 19.3184L19.5019 19.6729C18.8249 19.8504 18.2629 20.3219 17.9705 20.9579L17.3868 22.2271C16.8431 23.4094 15.4389 23.9204 14.2624 23.3643L12.9994 22.7672C12.3666 22.468 11.6331 22.468 11.0003 22.7672L9.73732 23.3643C8.56087 23.9204 7.15669 23.4094 6.61298 22.2271L6.02927 20.9579C5.73682 20.3219 5.1749 19.8504 4.49785 19.6729L3.14654 19.3184C1.88783 18.9883 1.14068 17.6942 1.48412 16.439L1.85282 15.0915C2.03755 14.4164 1.91017 13.694 1.50567 13.1228L0.698337 11.9826C-0.0536762 10.9206 0.205808 9.44905 1.27569 8.7083L2.42428 7.91306C2.99977 7.51462 3.36653 6.87937 3.42385 6.18176L3.53825 4.78943C3.64481 3.49251 4.78951 2.532 6.08524 2.65226L7.47628 2.78137C8.17324 2.84606 8.86253 2.59518 9.35485 2.09763L10.3375 1.10458Z" fill="url(#paint0_linear_10_292)"/>
<path d="M10.6254 16.534C10.2736 16.534 9.92175 16.3993 9.65375 16.1313L6.90499 13.3825C6.36761 12.8452 6.36761 11.9766 6.90499 11.4392C7.44237 10.9018 8.31098 10.9018 8.84836 11.4392L10.6254 13.2162L15.1513 8.69042C15.6886 8.15304 16.5573 8.15304 17.0946 8.69042C17.632 9.2278 17.632 10.0964 17.0946 10.6338L11.5971 16.1313C11.3291 16.3993 10.9773 16.534 10.6254 16.534Z" fill="url(#paint1_linear_10_292)"/>
</g>
<defs>
<linearGradient id="paint0_linear_10_292" x1="11.9999" y1="0.410828" x2="11.9999" y2="23.5892" gradientUnits="userSpaceOnUse">
<stop stop-color="#63ED67"/>
<stop offset="1" stop-color="#30C935"/>
</linearGradient>
<linearGradient id="paint1_linear_10_292" x1="11.9998" y1="16.534" x2="11.9998" y2="8.28738" gradientUnits="userSpaceOnUse">
<stop stop-color="#004703"/>
<stop offset="1" stop-color="#007004"/>
</linearGradient>
<clipPath id="clip0_10_292">
<rect width="24" height="24" fill="white"/>
</clipPath>
</defs>
</svg>
